<svg width="26" height="26" viewBox="0 0 26 26" fill="none" xmlns="http://www.w3.org/2000/svg">
<path fill-rule="evenodd" clip-rule="evenodd" d="M0.199806 13.0878C0.199805 20.1571 5.93056 25.8878 12.9998 25.8878C20.069 25.8878 25.7998 20.1571 25.7998 13.0878C25.7998 6.0186 20.069 0.287842 12.9998 0.287841C5.93056 0.287841 0.199806 6.0186 0.199806 13.0878ZM14.1312 19.0192L18.9312 14.2192C19.556 13.5944 19.556 12.5813 18.9312 11.9565C18.3063 11.3316 17.2933 11.3316 16.6684 11.9565L14.5998 14.0251L14.5998 8.28784C14.5998 7.40419 13.8835 6.68784 12.9998 6.68784C12.1162 6.68784 11.3998 7.40419 11.3998 8.28784L11.3998 14.0251L9.33118 11.9565C8.70634 11.3316 7.69327 11.3316 7.06843 11.9565C6.44359 12.5813 6.44359 13.5944 7.06843 14.2192L11.8684 19.0192C12.4933 19.6441 13.5063 19.6441 14.1312 19.0192Z" fill="#27AE60"/>
</svg>
