<svg width="23" height="27" viewBox="0 0 23 27" fill="none" xmlns="http://www.w3.org/2000/svg">
<path d="M9.0277 18.5816H13.8085M7.59345 25.7528H15.2428C17.2509 25.7528 18.255 25.7528 19.022 25.362C19.6967 25.0182 20.2452 24.4697 20.589 23.795C20.9798 23.028 20.9798 22.024 20.9798 20.0158V7.58564C20.9798 5.5775 20.9798 4.57343 20.589 3.80642C20.2452 3.13174 19.6967 2.58321 19.022 2.23944C18.255 1.84863 17.2509 1.84863 15.2428 1.84863H7.59345C5.58531 1.84863 4.58124 1.84863 3.81423 2.23944C3.13955 2.58321 2.59102 3.13174 2.24726 3.80642C1.85645 4.57343 1.85645 5.5775 1.85645 7.58564V20.0158C1.85645 22.024 1.85645 23.028 2.24726 23.795C2.59102 24.4697 3.13955 25.0182 3.81423 25.362C4.58124 25.7528 5.58531 25.7528 7.59345 25.7528ZM15.0037 10.2151C15.0037 12.1954 13.3984 13.8007 11.4181 13.8007C9.43783 13.8007 7.83249 12.1954 7.83249 10.2151C7.83249 8.23481 9.43783 6.62947 11.4181 6.62947C13.3984 6.62947 15.0037 8.23481 15.0037 10.2151Z" stroke="#844FBA" stroke-width="2.39042" stroke-linecap="round" stroke-linejoin="round"/>
</svg>
