<svg width="32" height="33" viewBox="0 0 32 33" fill="none" xmlns="http://www.w3.org/2000/svg">
<g clip-path="url(#clip0_2_4743)">
<rect y="0.737305" width="32" height="32" rx="4" fill="white"/>
<g clip-path="url(#clip1_2_4743)">
<path d="M20.2825 13.5123C20.9575 13.8348 21.0325 13.7373 25.75 13.7373C26.3467 13.7373 26.919 13.5003 27.341 13.0783C27.7629 12.6563 28 12.084 28 11.4873V6.9873C28 6.39057 27.7629 5.81827 27.341 5.39631C26.919 4.97436 26.3467 4.7373 25.75 4.7373H21.25C20.6533 4.7373 20.081 4.97436 19.659 5.39631C19.2371 5.81827 19 6.39057 19 6.9873C19 11.7423 18.925 11.8173 19.225 12.4548L16 15.6798L12.775 12.4548C13.0975 11.7798 13 11.7048 13 6.9873C13 6.39057 12.7629 5.81827 12.341 5.39631C11.919 4.97436 11.3467 4.7373 10.75 4.7373H6.25C5.65326 4.7373 5.08097 4.97436 4.65901 5.39631C4.23705 5.81827 4 6.39057 4 6.9873V11.4873C4 12.084 4.23705 12.6563 4.65901 13.0783C5.08097 13.5003 5.65326 13.7373 6.25 13.7373C11.005 13.7373 11.08 13.8123 11.7175 13.5123L14.9425 16.7373L11.7175 19.9623C11.0425 19.6398 10.9675 19.7373 6.25 19.7373C5.65326 19.7373 5.08097 19.9744 4.65901 20.3963C4.23705 20.8183 4 21.3906 4 21.9873V26.4873C4 27.084 4.23705 27.6563 4.65901 28.0783C5.08097 28.5003 5.65326 28.7373 6.25 28.7373H10.75C11.3467 28.7373 11.919 28.5003 12.341 28.0783C12.7629 27.6563 13 27.084 13 26.4873C13 21.7323 13.075 21.6573 12.775 21.0198L16 17.7948L19.225 21.0198C18.9025 21.6948 19 21.7698 19 26.4873C19 27.084 19.2371 27.6563 19.659 28.0783C20.081 28.5003 20.6533 28.7373 21.25 28.7373H25.75C26.3467 28.7373 26.919 28.5003 27.341 28.0783C27.7629 27.6563 28 27.084 28 26.4873V24.9873C28 24.7884 27.921 24.5976 27.7803 24.457C27.6397 24.3163 27.4489 24.2373 27.25 24.2373C27.0511 24.2373 26.8603 24.3163 26.7197 24.457C26.579 24.5976 26.5 24.7884 26.5 24.9873V26.4873C26.5 26.6862 26.421 26.877 26.2803 27.0176C26.1397 27.1583 25.9489 27.2373 25.75 27.2373H21.25C21.0511 27.2373 20.8603 27.1583 20.7197 27.0176C20.579 26.877 20.5 26.6862 20.5 26.4873V21.9873C20.5 21.7884 20.579 21.5976 20.7197 21.457C20.8603 21.3163 21.0511 21.2373 21.25 21.2373H25.75C25.9489 21.2373 26.1397 21.3163 26.2803 21.457C26.421 21.5976 26.5 21.7884 26.5 21.9873C26.5 22.1862 26.579 22.377 26.7197 22.5176C26.8603 22.6583 27.0511 22.7373 27.25 22.7373C28.6825 22.7373 28 19.7373 25.75 19.7373C20.995 19.7373 20.92 19.6623 20.2825 19.9623L17.0575 16.7373L20.2825 13.5123ZM20.5 6.9873C20.5 6.78839 20.579 6.59763 20.7197 6.45697C20.8603 6.31632 21.0511 6.2373 21.25 6.2373H25.75C25.9489 6.2373 26.1397 6.31632 26.2803 6.45697C26.421 6.59763 26.5 6.78839 26.5 6.9873V11.4873C26.5 11.6862 26.421 11.877 26.2803 12.0176C26.1397 12.1583 25.9489 12.2373 25.75 12.2373H21.25C21.0511 12.2373 20.8603 12.1583 20.7197 12.0176C20.579 11.877 20.5 11.6862 20.5 11.4873V6.9873ZM6.25 12.2373C6.05109 12.2373 5.86032 12.1583 5.71967 12.0176C5.57902 11.877 5.5 11.6862 5.5 11.4873V6.9873C5.5 6.78839 5.57902 6.59763 5.71967 6.45697C5.86032 6.31632 6.05109 6.2373 6.25 6.2373H10.75C10.9489 6.2373 11.1397 6.31632 11.2803 6.45697C11.421 6.59763 11.5 6.78839 11.5 6.9873V11.4873C11.5 11.6862 11.421 11.877 11.2803 12.0176C11.1397 12.1583 10.9489 12.2373 10.75 12.2373H6.25ZM11.5 26.4873C11.5 26.6862 11.421 26.877 11.2803 27.0176C11.1397 27.1583 10.9489 27.2373 10.75 27.2373H6.25C6.05109 27.2373 5.86032 27.1583 5.71967 27.0176C5.57902 26.877 5.5 26.6862 5.5 26.4873V21.9873C5.5 21.7884 5.57902 21.5976 5.71967 21.457C5.86032 21.3163 6.05109 21.2373 6.25 21.2373H10.75C10.9489 21.2373 11.1397 21.3163 11.2803 21.457C11.421 21.5976 11.5 21.7884 11.5 21.9873V26.4873Z" fill="#38004D"/>
<path d="M18.9392 23.9523C18.8642 23.7648 18.9392 23.8548 17.2817 22.2048C17.1404 22.0636 16.9489 21.9842 16.7492 21.9842C16.5494 21.9842 16.3579 22.0636 16.2167 22.2048C16.0754 22.346 15.9961 22.5376 15.9961 22.7373C15.9961 22.937 16.0754 23.1286 16.2167 23.2698L16.4417 23.4873H8.49916C8.30025 23.4873 8.10948 23.5663 7.96883 23.707C7.82818 23.8476 7.74916 24.0384 7.74916 24.2373C7.74916 24.4362 7.82818 24.627 7.96883 24.7676C8.10948 24.9083 8.30025 24.9873 8.49916 24.9873H16.4417L16.2167 25.2048C16.1109 25.3097 16.0388 25.4437 16.0095 25.5898C15.9801 25.7359 15.995 25.8873 16.0521 26.0249C16.1093 26.1625 16.2061 26.28 16.3302 26.3623C16.4543 26.4447 16.6002 26.4882 16.7492 26.4873C17.1542 26.4873 17.1692 26.3748 18.7817 24.7698C18.8857 24.6643 18.9562 24.5304 18.9843 24.3849C19.0123 24.2394 18.9966 24.0889 18.9392 23.9523ZM25.5317 15.4548C23.9642 13.8948 23.9867 13.8798 23.7842 13.7973C23.6476 13.7399 23.497 13.7242 23.3516 13.7522C23.2061 13.7802 23.0721 13.8507 22.9667 13.9548L21.4667 15.4548C21.3254 15.596 21.2461 15.7876 21.2461 15.9873C21.2461 16.187 21.3254 16.3786 21.4667 16.5198C21.6079 16.661 21.7994 16.7404 21.9992 16.7404C22.1989 16.7404 22.3904 16.661 22.5317 16.5198L22.7492 16.2948V24.2373C22.7492 24.4362 22.8282 24.627 22.9688 24.7676C23.1095 24.9083 23.3002 24.9873 23.4992 24.9873C23.6981 24.9873 23.8888 24.9083 24.0295 24.7676C24.1701 24.627 24.2492 24.4362 24.2492 24.2373V16.2948C24.5117 16.5573 24.6542 16.7373 24.9992 16.7373C25.1481 16.7382 25.294 16.6947 25.4181 16.6123C25.5423 16.53 25.6391 16.4125 25.6962 16.2749C25.7533 16.1373 25.7682 15.9859 25.7389 15.8398C25.7096 15.6937 25.6374 15.5597 25.5317 15.4548ZM8.21416 19.6773C8.30369 19.7179 8.40086 19.7389 8.49916 19.7389C8.59747 19.7389 8.69464 19.7179 8.78416 19.6773C8.97166 19.6023 8.88166 19.6773 10.5317 18.0198C10.6729 17.8786 10.7522 17.687 10.7522 17.4873C10.7522 17.2876 10.6729 17.096 10.5317 16.9548C10.3904 16.8136 10.1989 16.7342 9.99916 16.7342C9.79944 16.7342 9.60789 16.8136 9.46666 16.9548L9.24916 17.1798V9.2373C9.24916 9.03839 9.17014 8.84763 9.02949 8.70697C8.88884 8.56632 8.69807 8.4873 8.49916 8.4873C8.30025 8.4873 8.10948 8.56632 7.96883 8.70697C7.82818 8.84763 7.74916 9.03839 7.74916 9.2373V17.1798L7.53166 16.9548C7.39043 16.8136 7.19889 16.7342 6.99916 16.7342C6.79944 16.7342 6.60789 16.8136 6.46666 16.9548C6.32543 17.096 6.24609 17.2876 6.24609 17.4873C6.24609 17.687 6.32543 17.8786 6.46666 18.0198C8.03416 19.5798 8.01166 19.5948 8.21416 19.6773Z" fill="#9F85EC"/>
<path d="M23.5 10.7373C23.2033 10.7373 22.9133 10.6493 22.6666 10.4845C22.42 10.3197 22.2277 10.0854 22.1142 9.81133C22.0006 9.53724 21.9709 9.23564 22.0288 8.94467C22.0867 8.6537 22.2296 8.38642 22.4393 8.17665C22.6491 7.96687 22.9164 7.82401 23.2074 7.76613C23.4983 7.70825 23.7999 7.73795 24.074 7.85149C24.3481 7.96502 24.5824 8.15728 24.7472 8.40395C24.912 8.65062 25 8.94063 25 9.23731C25 9.63513 24.842 10.0167 24.5607 10.298C24.2794 10.5793 23.8978 10.7373 23.5 10.7373Z" fill="#38004D"/>
</g>
</g>
<defs>
<clipPath id="clip0_2_4743">
<rect width="32" height="32" fill="white" transform="translate(0 0.737305)"/>
</clipPath>
<clipPath id="clip1_2_4743">
<rect width="24" height="24" fill="white" transform="translate(4 4.7373)"/>
</clipPath>
</defs>
</svg>
