<svg width="24" height="25" viewBox="0 0 24 25" fill="none" xmlns="http://www.w3.org/2000/svg">
<g clip-path="url(#clip0_2_4745)">
<path d="M16.2825 9.5123C16.9575 9.8348 17.0325 9.7373 21.75 9.7373C22.3467 9.7373 22.919 9.50025 23.341 9.07829C23.7629 8.65634 24 8.08404 24 7.4873V2.9873C24 2.39057 23.7629 1.81827 23.341 1.39631C22.919 0.974358 22.3467 0.737305 21.75 0.737305L17.25 0.737305C16.6533 0.737305 16.081 0.974358 15.659 1.39631C15.2371 1.81827 15 2.39057 15 2.9873C15 7.7423 14.925 7.8173 15.225 8.4548L12 11.6798L8.775 8.4548C9.0975 7.7798 9 7.7048 9 2.9873C9 2.39057 8.76295 1.81827 8.34099 1.39631C7.91903 0.974358 7.34674 0.737305 6.75 0.737305L2.25 0.737305C1.65326 0.737305 1.08097 0.974358 0.65901 1.39631C0.237053 1.81827 0 2.39057 0 2.9873L0 7.4873C0 8.08404 0.237053 8.65634 0.65901 9.07829C1.08097 9.50025 1.65326 9.7373 2.25 9.7373C7.005 9.7373 7.08 9.8123 7.7175 9.5123L10.9425 12.7373L7.7175 15.9623C7.0425 15.6398 6.9675 15.7373 2.25 15.7373C1.65326 15.7373 1.08097 15.9744 0.65901 16.3963C0.237053 16.8183 0 17.3906 0 17.9873L0 22.4873C0 23.084 0.237053 23.6563 0.65901 24.0783C1.08097 24.5003 1.65326 24.7373 2.25 24.7373H6.75C7.34674 24.7373 7.91903 24.5003 8.34099 24.0783C8.76295 23.6563 9 23.084 9 22.4873C9 17.7323 9.075 17.6573 8.775 17.0198L12 13.7948L15.225 17.0198C14.9025 17.6948 15 17.7698 15 22.4873C15 23.084 15.2371 23.6563 15.659 24.0783C16.081 24.5003 16.6533 24.7373 17.25 24.7373H21.75C22.3467 24.7373 22.919 24.5003 23.341 24.0783C23.7629 23.6563 24 23.084 24 22.4873V20.9873C24 20.7884 23.921 20.5976 23.7803 20.457C23.6397 20.3163 23.4489 20.2373 23.25 20.2373C23.0511 20.2373 22.8603 20.3163 22.7197 20.457C22.579 20.5976 22.5 20.7884 22.5 20.9873V22.4873C22.5 22.6862 22.421 22.877 22.2803 23.0176C22.1397 23.1583 21.9489 23.2373 21.75 23.2373H17.25C17.0511 23.2373 16.8603 23.1583 16.7197 23.0176C16.579 22.877 16.5 22.6862 16.5 22.4873V17.9873C16.5 17.7884 16.579 17.5976 16.7197 17.457C16.8603 17.3163 17.0511 17.2373 17.25 17.2373H21.75C21.9489 17.2373 22.1397 17.3163 22.2803 17.457C22.421 17.5976 22.5 17.7884 22.5 17.9873C22.5 18.1862 22.579 18.377 22.7197 18.5176C22.8603 18.6583 23.0511 18.7373 23.25 18.7373C24.6825 18.7373 24 15.7373 21.75 15.7373C16.995 15.7373 16.92 15.6623 16.2825 15.9623L13.0575 12.7373L16.2825 9.5123ZM16.5 2.9873C16.5 2.78839 16.579 2.59763 16.7197 2.45697C16.8603 2.31632 17.0511 2.2373 17.25 2.2373H21.75C21.9489 2.2373 22.1397 2.31632 22.2803 2.45697C22.421 2.59763 22.5 2.78839 22.5 2.9873V7.4873C22.5 7.68622 22.421 7.87698 22.2803 8.01763C22.1397 8.15829 21.9489 8.2373 21.75 8.2373H17.25C17.0511 8.2373 16.8603 8.15829 16.7197 8.01763C16.579 7.87698 16.5 7.68622 16.5 7.4873V2.9873ZM2.25 8.2373C2.05109 8.2373 1.86032 8.15829 1.71967 8.01763C1.57902 7.87698 1.5 7.68622 1.5 7.4873V2.9873C1.5 2.78839 1.57902 2.59763 1.71967 2.45697C1.86032 2.31632 2.05109 2.2373 2.25 2.2373H6.75C6.94891 2.2373 7.13968 2.31632 7.28033 2.45697C7.42098 2.59763 7.5 2.78839 7.5 2.9873V7.4873C7.5 7.68622 7.42098 7.87698 7.28033 8.01763C7.13968 8.15829 6.94891 8.2373 6.75 8.2373H2.25ZM7.5 22.4873C7.5 22.6862 7.42098 22.877 7.28033 23.0176C7.13968 23.1583 6.94891 23.2373 6.75 23.2373H2.25C2.05109 23.2373 1.86032 23.1583 1.71967 23.0176C1.57902 22.877 1.5 22.6862 1.5 22.4873V17.9873C1.5 17.7884 1.57902 17.5976 1.71967 17.457C1.86032 17.3163 2.05109 17.2373 2.25 17.2373H6.75C6.94891 17.2373 7.13968 17.3163 7.28033 17.457C7.42098 17.5976 7.5 17.7884 7.5 17.9873V22.4873Z" fill="#38004D"/>
<path d="M14.9392 19.9523C14.8642 19.7648 14.9392 19.8548 13.2817 18.2048C13.1404 18.0636 12.9489 17.9842 12.7492 17.9842C12.5494 17.9842 12.3579 18.0636 12.2167 18.2048C12.0754 18.346 11.9961 18.5376 11.9961 18.7373C11.9961 18.937 12.0754 19.1286 12.2167 19.2698L12.4417 19.4873H4.49916C4.30025 19.4873 4.10948 19.5663 3.96883 19.707C3.82818 19.8476 3.74916 20.0384 3.74916 20.2373C3.74916 20.4362 3.82818 20.627 3.96883 20.7676C4.10948 20.9083 4.30025 20.9873 4.49916 20.9873H12.4417L12.2167 21.2048C12.1109 21.3097 12.0388 21.4437 12.0095 21.5898C11.9801 21.7359 11.995 21.8873 12.0521 22.0249C12.1093 22.1625 12.2061 22.28 12.3302 22.3623C12.4543 22.4447 12.6002 22.4882 12.7492 22.4873C13.1542 22.4873 13.1692 22.3748 14.7817 20.7698C14.8857 20.6643 14.9562 20.5304 14.9843 20.3849C15.0123 20.2394 14.9966 20.0889 14.9392 19.9523ZM21.5317 11.4548C19.9642 9.8948 19.9867 9.8798 19.7842 9.7973C19.6476 9.73987 19.497 9.72418 19.3516 9.75221C19.2061 9.78024 19.0721 9.85074 18.9667 9.9548L17.4667 11.4548C17.3254 11.596 17.2461 11.7876 17.2461 11.9873C17.2461 12.187 17.3254 12.3786 17.4667 12.5198C17.6079 12.661 17.7994 12.7404 17.9992 12.7404C18.1989 12.7404 18.3904 12.661 18.5317 12.5198L18.7492 12.2948V20.2373C18.7492 20.4362 18.8282 20.627 18.9688 20.7676C19.1095 20.9083 19.3002 20.9873 19.4992 20.9873C19.6981 20.9873 19.8888 20.9083 20.0295 20.7676C20.1701 20.627 20.2492 20.4362 20.2492 20.2373V12.2948C20.5117 12.5573 20.6542 12.7373 20.9992 12.7373C21.1481 12.7382 21.294 12.6947 21.4181 12.6123C21.5423 12.53 21.6391 12.4125 21.6962 12.2749C21.7533 12.1373 21.7682 11.9859 21.7389 11.8398C21.7096 11.6937 21.6374 11.5597 21.5317 11.4548ZM4.21416 15.6773C4.30369 15.7179 4.40086 15.7389 4.49916 15.7389C4.59747 15.7389 4.69464 15.7179 4.78416 15.6773C4.97166 15.6023 4.88166 15.6773 6.53166 14.0198C6.67289 13.8786 6.75223 13.687 6.75223 13.4873C6.75223 13.2876 6.67289 13.096 6.53166 12.9548C6.39043 12.8136 6.19889 12.7342 5.99916 12.7342C5.79944 12.7342 5.60789 12.8136 5.46666 12.9548L5.24916 13.1798V5.2373C5.24916 5.03839 5.17014 4.84763 5.02949 4.70697C4.88884 4.56632 4.69807 4.4873 4.49916 4.4873C4.30025 4.4873 4.10948 4.56632 3.96883 4.70697C3.82818 4.84763 3.74916 5.03839 3.74916 5.2373V13.1798L3.53166 12.9548C3.39043 12.8136 3.19889 12.7342 2.99916 12.7342C2.79944 12.7342 2.60789 12.8136 2.46666 12.9548C2.32543 13.096 2.24609 13.2876 2.24609 13.4873C2.24609 13.687 2.32543 13.8786 2.46666 14.0198C4.03416 15.5798 4.01166 15.5948 4.21416 15.6773Z" fill="#9F85EC"/>
<path d="M19.5 6.73731C19.2033 6.73731 18.9133 6.64933 18.6666 6.48451C18.42 6.31969 18.2277 6.08542 18.1142 5.81133C18.0006 5.53724 17.9709 5.23564 18.0288 4.94467C18.0867 4.6537 18.2296 4.38642 18.4393 4.17665C18.6491 3.96687 18.9164 3.82401 19.2074 3.76613C19.4983 3.70825 19.7999 3.73795 20.074 3.85149C20.3481 3.96502 20.5824 4.15728 20.7472 4.40395C20.912 4.65062 21 4.94063 21 5.23731C21 5.63513 20.842 6.01666 20.5607 6.29797C20.2794 6.57927 19.8978 6.73731 19.5 6.73731Z" fill="#38004D"/>
</g>
<defs>
<clipPath id="clip0_2_4745">
<rect width="24" height="24" fill="white" transform="translate(0 0.737305)"/>
</clipPath>
</defs>
</svg>
