<svg width="25" height="27" viewBox="0 0 25 27" fill="none" xmlns="http://www.w3.org/2000/svg">
<path d="M6.33069 23.1556H4.53788C3.21769 23.1556 2.14746 22.0854 2.14746 20.7652V4.03226C2.14746 2.71207 3.21769 1.64185 4.53788 1.64185H21.2708C22.591 1.64185 23.6612 2.71207 23.6612 4.03226V20.7652C23.6612 22.0854 22.591 23.1556 21.2708 23.1556H19.478M12.9043 21.9604C14.8846 21.9604 16.49 20.3551 16.49 18.3748C16.49 16.3945 14.8846 14.7892 12.9043 14.7892C10.9241 14.7892 9.31872 16.3945 9.31872 18.3748C9.31872 20.3551 10.9241 21.9604 12.9043 21.9604ZM12.9043 21.9604L12.93 21.9602L9.11394 25.7762L5.73338 22.3956L9.34221 18.7868M12.9043 21.9604L16.7204 25.7762L20.101 22.3956L16.4922 18.7868M9.31872 6.42268H16.49M6.9283 10.6059H18.8804" stroke="#844FBA" stroke-width="2.39042" stroke-linecap="round" stroke-linejoin="round"/>
</svg>
