<svg width="17" height="18" viewBox="0 0 17 18" fill="none" xmlns="http://www.w3.org/2000/svg">
<path d="M4.59369 5.84087H8.69397M4.59369 8.71106H11.1541M6.79451 13.6314H12.1382C13.516 13.6314 14.2049 13.6314 14.7312 13.3632C15.1941 13.1274 15.5704 12.751 15.8063 12.2881C16.0745 11.7619 16.0745 11.0729 16.0745 9.69512V5.26683C16.0745 3.88901 16.0745 3.2001 15.8063 2.67384C15.5704 2.21093 15.1941 1.83457 14.7312 1.59871C14.2049 1.33057 13.516 1.33057 12.1382 1.33057H5.24974C3.87192 1.33057 3.18301 1.33057 2.65675 1.59871C2.19384 1.83457 1.81748 2.21093 1.58162 2.67384C1.31348 3.2001 1.31348 3.88901 1.31348 5.26683V15.5466C1.31348 15.9836 1.31348 16.2021 1.40305 16.3143C1.48095 16.4119 1.59908 16.4686 1.72395 16.4685C1.86753 16.4684 2.03813 16.3319 2.37935 16.0589L4.33555 14.4939C4.73517 14.1742 4.93497 14.0144 5.15747 13.9007C5.35487 13.7999 5.56499 13.7262 5.78213 13.6816C6.02688 13.6314 6.28276 13.6314 6.79451 13.6314Z" stroke="#222222" stroke-width="1.64011" stroke-linecap="round" stroke-linejoin="round"/>
</svg>
