<svg width="16" height="19" viewBox="0 0 16 19" fill="none" xmlns="http://www.w3.org/2000/svg">
<path d="M5.35368 8.88612L7.02034 10.5528L10.7703 6.80279M14.5203 9.30279C14.5203 13.3932 10.0587 16.3681 8.43534 17.3152C8.25084 17.4228 8.1586 17.4766 8.02841 17.5046C7.92738 17.5262 7.77998 17.5262 7.67894 17.5046C7.54876 17.4766 7.45651 17.4228 7.27202 17.3152C5.64865 16.3681 1.18701 13.3932 1.18701 9.30279V5.31746C1.18701 4.6512 1.18701 4.31807 1.29598 4.03171C1.39224 3.77874 1.54866 3.55302 1.75173 3.37406C1.98159 3.17149 2.29351 3.05452 2.91735 2.82058L7.38551 1.14502C7.55876 1.08005 7.64538 1.04757 7.7345 1.03469C7.81354 1.02327 7.89382 1.02327 7.97286 1.03469C8.06197 1.04757 8.1486 1.08005 8.32184 1.14502L12.79 2.82058C13.4138 3.05452 13.7258 3.17149 13.9556 3.37406C14.1587 3.55302 14.3151 3.77874 14.4114 4.03171C14.5203 4.31807 14.5203 4.6512 14.5203 5.31746V9.30279Z" stroke="#777777" stroke-width="2" stroke-linecap="round" stroke-linejoin="round"/>
</svg>
