<svg width="27" height="26" viewBox="0 0 27 26" fill="none" xmlns="http://www.w3.org/2000/svg">
<path fill-rule="evenodd" clip-rule="evenodd" d="M13.5045 2.97268C7.8964 2.97268 3.35012 7.51895 3.35012 13.1271C3.35012 18.7352 7.8964 23.2815 13.5045 23.2815C19.1126 23.2815 23.6589 18.7352 23.6589 13.1271C23.6589 7.51895 19.1126 2.97268 13.5045 2.97268ZM0.811523 13.1271C0.811523 6.11693 6.49437 0.434082 13.5045 0.434082C20.5147 0.434082 26.1975 6.11693 26.1975 13.1271C26.1975 20.1372 20.5147 25.8201 13.5045 25.8201C6.49437 25.8201 0.811523 20.1372 0.811523 13.1271ZM13.5045 6.78058C14.2055 6.78058 14.7738 7.34886 14.7738 8.04987V12.6013L18.2099 16.0374C18.7056 16.5331 18.7056 17.3368 18.2099 17.8325C17.7142 18.3282 16.9106 18.3282 16.4149 17.8325L12.607 14.0246C12.3689 13.7866 12.2352 13.4637 12.2352 13.1271V8.04987C12.2352 7.34886 12.8035 6.78058 13.5045 6.78058Z" fill="#777777"/>
</svg>
