<svg width="28" height="22" viewBox="0 0 28 22" fill="none" xmlns="http://www.w3.org/2000/svg">
<path fill-rule="evenodd" clip-rule="evenodd" d="M12.6665 3.0883C9.72099 3.0883 7.33317 5.47611 7.33317 8.42163C7.33317 8.82546 7.37782 9.21728 7.46191 9.59299C7.62272 10.3114 7.17091 11.0241 6.45261 11.1852C4.66671 11.5858 3.33317 13.1829 3.33317 15.0883C3.33317 17.2974 5.12403 19.0883 7.33317 19.0883H19.3332C22.2787 19.0883 24.6665 16.7005 24.6665 13.755C24.6665 10.8094 22.2787 8.42163 19.3332 8.42163C19.2974 8.42163 19.2618 8.42198 19.2262 8.42268C18.5822 8.43529 18.0213 7.9858 17.8933 7.35458C17.3997 4.92024 15.2455 3.0883 12.6665 3.0883ZM4.6665 8.42163C4.6665 4.00335 8.24823 0.421631 12.6665 0.421631C16.1692 0.421631 19.1439 2.67156 20.2282 5.80447C24.2252 6.24943 27.3332 9.63924 27.3332 13.755C27.3332 18.1732 23.7514 21.755 19.3332 21.755H7.33317C3.65127 21.755 0.666504 18.7702 0.666504 15.0883C0.666504 12.3464 2.32081 9.99323 4.68497 8.96875C4.67272 8.78783 4.6665 8.60538 4.6665 8.42163Z" fill="#777777"/>
</svg>
