<svg width="27" height="22" viewBox="0 0 27 22" fill="none" xmlns="http://www.w3.org/2000/svg">
<path d="M13.4179 20.3624H5.29049C3.95173 20.3624 3.28235 20.3624 2.77101 20.1018C2.32123 19.8726 1.95554 19.507 1.72636 19.0572C1.46582 18.5458 1.46582 17.8765 1.46582 16.5377V5.06368C1.46582 3.72492 1.46582 3.05554 1.72636 2.54421C1.95554 2.09442 2.32123 1.72873 2.77101 1.49955C3.28235 1.23901 3.95173 1.23901 5.29049 1.23901H5.76857C8.44609 1.23901 9.78485 1.23901 10.8075 1.76009C11.7071 2.21845 12.4385 2.94982 12.8968 3.8494C13.4179 4.87207 13.4179 6.21083 13.4179 8.88835M13.4179 20.3624V8.88835M13.4179 20.3624H21.5453C22.8841 20.3624 23.5535 20.3624 24.0648 20.1018C24.5146 19.8726 24.8803 19.507 25.1095 19.0572C25.37 18.5458 25.37 17.8765 25.37 16.5377V5.06368C25.37 3.72492 25.37 3.05554 25.1095 2.54421C24.8803 2.09442 24.5146 1.72873 24.0648 1.49955C23.5535 1.23901 22.8841 1.23901 21.5453 1.23901H21.0673C18.3897 1.23901 17.051 1.23901 16.0283 1.76009C15.1287 2.21845 14.3974 2.94982 13.939 3.8494C13.4179 4.87207 13.4179 6.21083 13.4179 8.88835" stroke="#844FBA" stroke-width="2.39042" stroke-linecap="round" stroke-linejoin="round"/>
</svg>
