<svg width="28" height="30" viewBox="0 0 28 30" fill="none" xmlns="http://www.w3.org/2000/svg">
<path d="M26 5.87622C26 8.08536 20.6274 9.87622 14 9.87622C7.37258 9.87622 2 8.08536 2 5.87622M26 5.87622C26 3.66708 20.6274 1.87622 14 1.87622C7.37258 1.87622 2 3.66708 2 5.87622M26 5.87622V24.5429C26 26.7562 20.6667 28.5429 14 28.5429C7.33333 28.5429 2 26.7562 2 24.5429V5.87622M26 12.1698C26 14.3832 20.6667 16.1698 14 16.1698C7.33333 16.1698 2 14.3832 2 12.1698M26 18.4629C26 20.6762 20.6667 22.4629 14 22.4629C7.33333 22.4629 2 20.6762 2 18.4629" stroke="#777777" stroke-width="2.89227" stroke-linecap="round" stroke-linejoin="round"/>
</svg>
