<svg width="21" height="27" viewBox="0 0 21 27" fill="none" xmlns="http://www.w3.org/2000/svg">
<path d="M5.48035 17.9361L4.44213 25.7528L9.92623 22.4624C10.1051 22.355 10.1945 22.3014 10.29 22.2804C10.3744 22.2619 10.4619 22.2619 10.5464 22.2804C10.6418 22.3014 10.7313 22.355 10.9101 22.4624L16.3942 25.7528L15.3567 17.9327M15.708 4.53652C15.8926 4.98295 16.2469 5.33781 16.6931 5.52307L18.2575 6.17109C18.7039 6.35602 19.0586 6.71074 19.2435 7.15721C19.4285 7.60368 19.4285 8.10532 19.2435 8.55179L18.596 10.1151C18.411 10.5618 18.4108 11.0639 18.5966 11.5104L19.243 13.0733C19.3347 13.2944 19.3819 13.5314 19.3819 13.7708C19.382 14.0102 19.3348 14.2472 19.2432 14.4684C19.1516 14.6895 19.0173 14.8905 18.8481 15.0597C18.6788 15.229 18.4778 15.3632 18.2566 15.4547L16.6933 16.1023C16.2469 16.2869 15.8921 16.6412 15.7068 17.0874L15.0588 18.6518C14.8739 19.0983 14.5192 19.453 14.0727 19.6379C13.6263 19.8229 13.1247 19.8229 12.6782 19.6379L11.1149 18.9904C10.6685 18.8059 10.167 18.8063 9.72084 18.9914L8.15644 19.6385C7.71024 19.823 7.20904 19.8229 6.76295 19.6381C6.31687 19.4533 5.96236 19.099 5.7773 18.653L5.12912 17.0881C4.94453 16.6417 4.59022 16.2868 4.14408 16.1015L2.57969 15.4535C2.13343 15.2687 1.77883 14.9142 1.59384 14.468C1.40884 14.0217 1.40859 13.5203 1.59314 13.0739L2.24067 11.5106C2.42514 11.0641 2.42476 10.5627 2.23962 10.1164L1.59302 8.55088C1.50134 8.32975 1.45414 8.09272 1.4541 7.85333C1.45406 7.61395 1.50119 7.37691 1.5928 7.15575C1.6844 6.93459 1.81868 6.73365 1.98797 6.56441C2.15726 6.39517 2.35824 6.26094 2.57942 6.16941L4.14269 5.52185C4.58872 5.33742 4.94335 4.98355 5.12875 4.5379L5.77674 2.97345C5.96167 2.52698 6.31637 2.17227 6.76282 1.98733C7.20928 1.8024 7.71091 1.8024 8.15736 1.98733L9.72063 2.63489C10.1671 2.81936 10.6685 2.81899 11.1147 2.63384L12.6798 1.98834C13.1262 1.80351 13.6277 1.80355 14.0741 1.98844C14.5204 2.17334 14.8751 2.52796 15.06 2.97431L15.7082 4.53923L15.708 4.53652Z" stroke="#844FBA" stroke-width="2.39042" stroke-linecap="round" stroke-linejoin="round"/>
</svg>
