<svg width="28" height="28" viewBox="0 0 28 28" fill="none" xmlns="http://www.w3.org/2000/svg">
<path fill-rule="evenodd" clip-rule="evenodd" d="M0.66748 4.55762C0.66748 2.34848 2.45834 0.557617 4.66748 0.557617H23.3341C25.5433 0.557617 27.3341 2.34848 27.3341 4.55762V17.8909C27.3341 20.1001 25.5433 21.8909 23.3341 21.8909H18.7085L19.2048 23.8759L20.277 24.9481C20.6583 25.3295 20.7724 25.903 20.566 26.4012C20.3596 26.8994 19.8734 27.2243 19.3341 27.2243H8.66748C8.1282 27.2243 7.64202 26.8994 7.43564 26.4012C7.22927 25.903 7.34334 25.3295 7.72467 24.9481L8.79686 23.8759L9.29311 21.8909H4.66748C2.45834 21.8909 0.66748 20.1001 0.66748 17.8909V4.55762ZM3.33415 16.5576V17.8909C3.33415 18.6273 3.9311 19.2243 4.66748 19.2243H10.9709C10.9901 19.2239 11.0094 19.2239 11.0287 19.2243H16.9729C16.9922 19.2239 17.0115 19.2239 17.0307 19.2243H23.3341C24.0705 19.2243 24.6675 18.6273 24.6675 17.8909V16.5576H3.33415ZM24.6675 13.8909H3.33415V4.55762C3.33415 3.82124 3.9311 3.22428 4.66748 3.22428H23.3341C24.0705 3.22428 24.6675 3.82124 24.6675 4.55762V13.8909ZM15.9598 21.8909H12.0418L11.3752 24.5576H16.6264L15.9598 21.8909Z" fill="#777777"/>
</svg>
