<svg width="27" height="26" viewBox="0 0 27 26" fill="none" xmlns="http://www.w3.org/2000/svg">
<path fill-rule="evenodd" clip-rule="evenodd" d="M13.5045 2.58938C7.8964 2.58938 3.35012 7.13565 3.35012 12.7438C3.35012 18.3519 7.8964 22.8982 13.5045 22.8982C19.1126 22.8982 23.6589 18.3519 23.6589 12.7438C23.6589 7.13565 19.1126 2.58938 13.5045 2.58938ZM0.811523 12.7438C0.811523 5.73363 6.49437 0.0507812 13.5045 0.0507812C20.5147 0.0507812 26.1975 5.73363 26.1975 12.7438C26.1975 19.7539 20.5147 25.4368 13.5045 25.4368C6.49437 25.4368 0.811523 19.7539 0.811523 12.7438ZM13.5045 5.12798C14.2055 5.12798 14.7738 5.69626 14.7738 6.39728V6.51451C15.9675 6.73891 17.0477 7.28117 17.7617 8.104C18.2211 8.63348 18.1643 9.43515 17.6348 9.89458C17.1054 10.354 16.3037 10.2972 15.8443 9.76774C15.638 9.53003 15.2701 9.28837 14.7738 9.12722L14.7738 11.5912C15.5628 11.7394 16.2926 12.0254 16.9012 12.4312C17.8172 13.0419 18.5817 14.0249 18.5817 15.2824C18.5817 16.5398 17.8172 17.5229 16.9012 18.1335C16.2926 18.5393 15.5628 18.8253 14.7738 18.9735L14.7738 19.0903C14.7738 19.7913 14.2055 20.3596 13.5045 20.3596C12.8035 20.3595 12.2352 19.7913 12.2352 19.0902L12.2352 18.973C11.0415 18.7486 9.96133 18.2064 9.24737 17.3835C8.78794 16.8541 8.84472 16.0524 9.3742 15.593C9.90368 15.1335 10.7053 15.1903 11.1648 15.7198C11.371 15.9575 11.7389 16.1992 12.2352 16.3603L12.2352 13.8963C11.4462 13.7481 10.7165 13.4621 10.1078 13.0564C9.19182 12.4457 8.42732 11.4626 8.42732 10.2052C8.42732 8.94772 9.19182 7.96467 10.1078 7.35399C10.7165 6.94824 11.4462 6.66221 12.2352 6.51404V6.39728C12.2352 5.69626 12.8035 5.12798 13.5045 5.12798ZM12.2352 9.12755C11.9552 9.21816 11.7125 9.33524 11.516 9.46623C11.0538 9.77434 10.9659 10.0606 10.9659 10.2052C10.9659 10.3497 11.0538 10.636 11.516 10.9441C11.7125 11.0751 11.9552 11.1922 12.2352 11.2828L12.2352 9.12755ZM14.7738 14.2047L14.7738 16.36C15.0539 16.2694 15.2966 16.1523 15.493 16.0213C15.9552 15.7132 16.0431 15.4269 16.0431 15.2824C16.0431 15.1378 15.9552 14.8515 15.493 14.5434C15.2966 14.4124 15.0538 14.2954 14.7738 14.2047Z" fill="#777777"/>
</svg>
