<svg width="27" height="25" viewBox="0 0 27 25" fill="none" xmlns="http://www.w3.org/2000/svg">
<path d="M8.07658 10.8822H4.61047C3.94109 10.8822 3.6064 10.8822 3.35073 11.0125C3.12584 11.1271 2.943 11.3099 2.82841 11.5348C2.69814 11.7905 2.69814 12.1252 2.69814 12.7946V22.8343M18.8335 10.8822H22.2996C22.969 10.8822 23.3036 10.8822 23.5593 11.0125C23.7842 11.1271 23.9671 11.3099 24.0816 11.5348C24.2119 11.7905 24.2119 12.1252 24.2119 12.7946V22.8343M18.8335 22.8343V5.14523C18.8335 3.80647 18.8335 3.13709 18.5729 2.62575C18.3437 2.17596 17.9781 1.81027 17.5283 1.5811C17.0169 1.32056 16.3476 1.32056 15.0088 1.32056H11.9013C10.5625 1.32056 9.89311 1.32056 9.38177 1.5811C8.93199 1.81027 8.5663 2.17596 8.33712 2.62575C8.07658 3.13709 8.07658 3.80647 8.07658 5.14523V22.8343M25.4071 22.8343H1.50293M12.2598 6.10139H14.6502M12.2598 10.8822H14.6502M12.2598 15.6631H14.6502" stroke="#844FBA" stroke-width="2.39042" stroke-linecap="round" stroke-linejoin="round"/>
</svg>
