<svg width="20" height="15" viewBox="0 0 20 15" fill="none" xmlns="http://www.w3.org/2000/svg">
<path fill-rule="evenodd" clip-rule="evenodd" d="M2.17423 7.76911C3.28692 10.9176 6.28999 13.1718 9.81734 13.1718C13.3447 13.1718 16.3477 10.9176 17.4604 7.76916C16.3477 4.6207 13.3447 2.36649 9.81732 2.36649C6.28999 2.36649 3.28693 4.62067 2.17423 7.76911ZM0.366084 7.49928C1.62798 3.48162 5.38093 0.565613 9.81732 0.565613C14.2537 0.565613 18.0067 3.48165 19.2686 7.49935C19.3237 7.675 19.3237 7.86334 19.2686 8.03899C18.0067 12.0567 14.2537 14.9727 9.81734 14.9727C5.38093 14.9727 1.62795 12.0566 0.366082 8.03892C0.310915 7.86327 0.310915 7.67493 0.366084 7.49928ZM9.81692 5.96825C8.82232 5.96825 8.01604 6.77454 8.01604 7.76913C8.01604 8.76373 8.82232 9.57001 9.81692 9.57001C10.8115 9.57001 11.6178 8.76373 11.6178 7.76913C11.6178 6.77454 10.8115 5.96825 9.81692 5.96825ZM6.21516 7.76913C6.21516 5.77994 7.82772 4.16737 9.81692 4.16737C11.8061 4.16737 13.4187 5.77994 13.4187 7.76913C13.4187 9.75833 11.8061 11.3709 9.81692 11.3709C7.82772 11.3709 6.21516 9.75833 6.21516 7.76913Z" fill="#777777"/>
</svg>
