<svg width="25" height="25" viewBox="0 0 25 25" fill="none" xmlns="http://www.w3.org/2000/svg">
<g clip-path="url(#clip0_2_4381)">
<path d="M1.85352 5.43092H4.58952C4.80415 6.22065 5.27269 6.91782 5.92284 7.41485C6.573 7.91189 7.36864 8.18118 8.18702 8.18118C9.00539 8.18118 9.80104 7.91189 10.4512 7.41485C11.1013 6.91782 11.5699 6.22065 11.7845 5.43092H23.8535C24.1187 5.43092 24.3731 5.32557 24.5606 5.13803C24.7482 4.95049 24.8535 4.69614 24.8535 4.43092C24.8535 4.16571 24.7482 3.91135 24.5606 3.72382C24.3731 3.53628 24.1187 3.43092 23.8535 3.43092H11.7845C11.5699 2.64119 11.1013 1.94403 10.4512 1.44699C9.80104 0.949955 9.00539 0.680664 8.18702 0.680664C7.36864 0.680664 6.573 0.949955 5.92284 1.44699C5.27269 1.94403 4.80415 2.64119 4.58952 3.43092H1.85352C1.5883 3.43092 1.33395 3.53628 1.14641 3.72382C0.958872 3.91135 0.853516 4.16571 0.853516 4.43092C0.853516 4.69614 0.958872 4.95049 1.14641 5.13803C1.33395 5.32557 1.5883 5.43092 1.85352 5.43092ZM8.18652 2.68092C8.53263 2.68092 8.87098 2.78356 9.15876 2.97585C9.44655 3.16814 9.67085 3.44146 9.8033 3.76123C9.93576 4.081 9.97041 4.43286 9.90289 4.77233C9.83537 5.1118 9.66869 5.42362 9.42395 5.66836C9.17921 5.9131 8.86739 6.07977 8.52792 6.1473C8.18846 6.21482 7.83659 6.18017 7.51682 6.04771C7.19705 5.91526 6.92374 5.69096 6.73144 5.40317C6.53915 5.11539 6.43652 4.77704 6.43652 4.43092C6.43705 3.96696 6.62159 3.52214 6.94966 3.19407C7.27774 2.866 7.72255 2.68145 8.18652 2.68092Z" fill="#777777"/>
<path d="M23.8535 11.6814H21.1175C20.9032 10.8915 20.4349 10.1941 19.7848 9.69684C19.1347 9.19959 18.339 8.93018 17.5205 8.93018C16.7021 8.93018 15.9063 9.19959 15.2562 9.69684C14.6061 10.1941 14.1378 10.8915 13.9235 11.6814H1.85352C1.5883 11.6814 1.33395 11.7868 1.14641 11.9743C0.958872 12.1618 0.853516 12.4162 0.853516 12.6814C0.853516 12.9466 0.958872 13.201 1.14641 13.3885C1.33395 13.576 1.5883 13.6814 1.85352 13.6814H13.9235C14.1378 14.4713 14.6061 15.1687 15.2562 15.666C15.9063 16.1632 16.7021 16.4326 17.5205 16.4326C18.339 16.4326 19.1347 16.1632 19.7848 15.666C20.4349 15.1687 20.9032 14.4713 21.1175 13.6814H23.8535C24.1187 13.6814 24.3731 13.576 24.5606 13.3885C24.7482 13.201 24.8535 12.9466 24.8535 12.6814C24.8535 12.4162 24.7482 12.1618 24.5606 11.9743C24.3731 11.7868 24.1187 11.6814 23.8535 11.6814ZM17.5205 14.4314C17.1744 14.4314 16.8361 14.3288 16.5483 14.1365C16.2605 13.9442 16.0362 13.6709 15.9037 13.3511C15.7713 13.0313 15.7366 12.6795 15.8041 12.34C15.8717 12.0005 16.0383 11.6887 16.2831 11.444C16.5278 11.1992 16.8396 11.0326 17.1791 10.965C17.5186 10.8975 17.8704 10.9322 18.1902 11.0646C18.51 11.1971 18.7833 11.4214 18.9756 11.7092C19.1679 11.9969 19.2705 12.3353 19.2705 12.6814C19.27 13.1454 19.0854 13.5902 18.7574 13.9183C18.4293 14.2463 17.9845 14.4309 17.5205 14.4314Z" fill="#777777"/>
<path d="M23.8535 19.9314H11.7845C11.5699 19.1417 11.1013 18.4445 10.4512 17.9475C9.80104 17.4504 9.00539 17.1812 8.18702 17.1812C7.36864 17.1812 6.573 17.4504 5.92284 17.9475C5.27269 18.4445 4.80415 19.1417 4.58952 19.9314H1.85352C1.5883 19.9314 1.33395 20.0368 1.14641 20.2243C0.958872 20.4118 0.853516 20.6662 0.853516 20.9314C0.853516 21.1966 0.958872 21.451 1.14641 21.6385C1.33395 21.826 1.5883 21.9314 1.85352 21.9314H4.58952C4.80415 22.7211 5.27269 23.4183 5.92284 23.9153C6.573 24.4124 7.36864 24.6816 8.18702 24.6816C9.00539 24.6816 9.80104 24.4124 10.4512 23.9153C11.1013 23.4183 11.5699 22.7211 11.7845 21.9314H23.8535C24.1187 21.9314 24.3731 21.826 24.5606 21.6385C24.7482 21.451 24.8535 21.1966 24.8535 20.9314C24.8535 20.6662 24.7482 20.4118 24.5606 20.2243C24.3731 20.0368 24.1187 19.9314 23.8535 19.9314ZM8.18652 22.6814C7.8404 22.6814 7.50205 22.5788 7.21427 22.3865C6.92648 22.1942 6.70218 21.9209 6.56973 21.6011C6.43727 21.2813 6.40262 20.9295 6.47014 20.59C6.53767 20.2505 6.70434 19.9387 6.94908 19.694C7.19382 19.4492 7.50564 19.2826 7.84511 19.215C8.18457 19.1475 8.53644 19.1822 8.85621 19.3146C9.17598 19.4471 9.4493 19.6714 9.64159 19.9592C9.83388 20.2469 9.93652 20.5853 9.93652 20.9314C9.93572 21.3953 9.75109 21.8399 9.42308 22.168C9.09506 22.496 8.6504 22.6806 8.18652 22.6814Z" fill="#777777"/>
</g>
<defs>
<clipPath id="clip0_2_4381">
<rect width="24" height="24" fill="white" transform="translate(0.853516 0.681152)"/>
</clipPath>
</defs>
</svg>
