<svg width="25" height="25" viewBox="0 0 25 25" fill="none" xmlns="http://www.w3.org/2000/svg">
<g clip-path="url(#clip0_2_4704)">
<path d="M5.81891 14.667L4.9835 17.7857L1.93011 17.8502C1.01759 16.1577 0.5 14.2213 0.5 12.1635C0.5 10.1736 0.983938 8.29707 1.84175 6.64478H1.84241L4.56078 7.14315L5.75159 9.84521C5.50236 10.5718 5.36652 11.3518 5.36652 12.1635C5.36661 13.0443 5.52617 13.8883 5.81891 14.667Z" fill="#FBBB00"/>
<path d="M24.2902 9.92188C24.428 10.6478 24.4999 11.3975 24.4999 12.1636C24.4999 13.0227 24.4095 13.8608 24.2375 14.6691C23.6533 17.4199 22.1269 19.8219 20.0124 21.5217L20.0118 21.521L16.5878 21.3463L16.1032 18.3212C17.5063 17.4984 18.6028 16.2107 19.1804 14.6691H12.7637V9.92188H19.274H24.2902Z" fill="#518EF8"/>
<path d="M20.0114 21.5211L20.0121 21.5217C17.9556 23.1747 15.3433 24.1637 12.4996 24.1637C7.92969 24.1637 3.95652 21.6094 1.92969 17.8505L5.81848 14.6672C6.83187 17.3718 9.44089 19.2971 12.4996 19.2971C13.8143 19.2971 15.046 18.9417 16.1029 18.3213L20.0114 21.5211Z" fill="#28B446"/>
<path d="M20.1596 2.9262L16.2721 6.10882C15.1783 5.42511 13.8853 5.03014 12.5 5.03014C9.37213 5.03014 6.71431 7.04375 5.75169 9.84532L1.84245 6.64489H1.8418C3.83895 2.79434 7.86223 0.163574 12.5 0.163574C15.4117 0.163574 18.0814 1.20073 20.1596 2.9262Z" fill="#F14336"/>
</g>
<defs>
<clipPath id="clip0_2_4704">
<rect width="24" height="24" fill="white" transform="translate(0.5 0.163574)"/>
</clipPath>
</defs>
</svg>
