<svg width="21" height="21" viewBox="0 0 21 21" fill="none" xmlns="http://www.w3.org/2000/svg">
<g clip-path="url(#clip0_2_4279)">
<path d="M15.8534 6.9694C15.7117 6.9694 15.57 6.98607 15.4367 7.01107V4.05273C15.4367 2.90273 14.5034 1.9694 13.3534 1.9694C13.195 1.9694 13.045 1.98607 12.9034 2.0194C12.7284 1.0444 11.8784 0.302734 10.8534 0.302734C9.97002 0.302734 9.22002 0.852734 8.91169 1.62773C8.73669 1.57773 8.54502 1.55273 8.35335 1.55273C7.20335 1.55273 6.27002 2.48607 6.27002 3.63607V4.0944C6.13669 4.0694 5.99502 4.05273 5.85335 4.05273C4.70335 4.05273 3.77002 4.98607 3.77002 6.13607V13.2194C3.77002 17.1277 6.94502 20.3027 10.8534 20.3027C14.7617 20.3027 17.9367 17.1277 17.9367 13.2194V9.05273C17.9367 7.90273 17.0034 6.9694 15.8534 6.9694ZM16.27 13.2194C16.27 16.2111 13.845 18.6361 10.8534 18.6361C7.86169 18.6361 5.43669 16.2111 5.43669 13.2194V6.13607C5.43669 5.90273 5.62002 5.7194 5.85335 5.7194C6.08669 5.7194 6.27002 5.90273 6.27002 6.13607V10.3027H7.93669V3.63607C7.93669 3.40273 8.12002 3.2194 8.35335 3.2194C8.58669 3.2194 8.77002 3.40273 8.77002 3.63607V9.4694H10.4367V2.38607C10.4367 2.15273 10.62 1.9694 10.8534 1.9694C11.0867 1.9694 11.27 2.15273 11.27 2.38607V9.4694H12.9367V4.05273C12.9367 3.8194 13.12 3.63607 13.3534 3.63607C13.5867 3.63607 13.77 3.8194 13.77 4.05273V11.4861C12.295 12.1277 11.27 13.5944 11.27 15.3027H12.9367C12.9367 13.9194 14.0534 12.8027 15.4367 12.8027V9.05273C15.4367 8.8194 15.62 8.63607 15.8534 8.63607C16.0867 8.63607 16.27 8.8194 16.27 9.05273V13.2194Z" fill="#777777"/>
</g>
<defs>
<clipPath id="clip0_2_4279">
<rect width="20" height="20" fill="white" transform="translate(0.853516 0.302734)"/>
</clipPath>
</defs>
</svg>
