<svg width="25" height="25" viewBox="0 0 25 25" fill="none" xmlns="http://www.w3.org/2000/svg">
<path fill-rule="evenodd" clip-rule="evenodd" d="M0.714844 12.9946C0.714844 6.36721 6.08743 0.994629 12.7148 0.994629C19.3423 0.994629 24.7148 6.36721 24.7148 12.9946C24.7148 19.622 19.3423 24.9946 12.7148 24.9946C6.08743 24.9946 0.714844 19.622 0.714844 12.9946ZM12.7154 6.59463C10.9773 6.59463 10.7592 6.60223 10.0765 6.6333C9.39514 6.6645 8.93007 6.77236 8.52313 6.93063C8.1022 7.0941 7.74513 7.31277 7.38939 7.66864C7.03338 8.02438 6.81472 8.38145 6.65071 8.80225C6.49205 9.20932 6.38404 9.67453 6.35338 10.3556C6.32284 11.0383 6.31484 11.2565 6.31484 12.9947C6.31484 14.7328 6.32258 14.9503 6.35351 15.633C6.38484 16.3143 6.49271 16.7794 6.65085 17.1863C6.81445 17.6073 7.03312 17.9643 7.38899 18.3201C7.74459 18.6761 8.10166 18.8953 8.52233 19.0588C8.92954 19.217 9.39474 19.3249 10.0759 19.3561C10.7586 19.3872 10.9766 19.3948 12.7146 19.3948C14.4529 19.3948 14.6704 19.3872 15.3531 19.3561C16.0344 19.3249 16.5 19.217 16.9072 19.0588C17.328 18.8953 17.6846 18.6761 18.0402 18.3201C18.3962 17.9643 18.6148 17.6073 18.7788 17.1865C18.9362 16.7794 19.0442 16.3142 19.0762 15.6331C19.1068 14.9504 19.1148 14.7328 19.1148 12.9947C19.1148 11.2565 19.1068 11.0384 19.0762 10.3557C19.0442 9.67439 18.9362 9.20932 18.7788 8.80239C18.6148 8.38145 18.3962 8.02438 18.0402 7.66864C17.6842 7.31264 17.3282 7.09397 16.9068 6.93063C16.4988 6.77236 16.0335 6.6645 15.3521 6.6333C14.6695 6.60223 14.4521 6.59463 12.7134 6.59463H12.7154Z" fill="#777777"/>
<path fill-rule="evenodd" clip-rule="evenodd" d="M12.1413 7.74797C12.3117 7.74771 12.5018 7.74797 12.7154 7.74797C14.4243 7.74797 14.6268 7.75411 15.3016 7.78477C15.9256 7.81331 16.2643 7.91758 16.4899 8.00518C16.7886 8.12118 17.0015 8.25985 17.2254 8.48385C17.4494 8.70785 17.588 8.92119 17.7043 9.21986C17.7919 9.44519 17.8963 9.78386 17.9247 10.4079C17.9554 11.0825 17.962 11.2852 17.962 12.9932C17.962 14.7012 17.9554 14.9039 17.9247 15.5786C17.8962 16.2026 17.7919 16.5413 17.7043 16.7666C17.5883 17.0653 17.4494 17.2779 17.2254 17.5018C17.0014 17.7258 16.7887 17.8645 16.4899 17.9805C16.2645 18.0685 15.9256 18.1725 15.3016 18.201C14.6269 18.2317 14.4243 18.2383 12.7154 18.2383C11.0065 18.2383 10.804 18.2317 10.1293 18.201C9.50528 18.1722 9.16661 18.0679 8.94087 17.9803C8.6422 17.8643 8.42887 17.7257 8.20486 17.5017C7.98086 17.2777 7.84219 17.0649 7.72592 16.7661C7.63832 16.5407 7.53392 16.2021 7.50552 15.5781C7.47486 14.9034 7.46872 14.7007 7.46872 12.9916C7.46872 11.2825 7.47486 11.0809 7.50552 10.4063C7.53406 9.78226 7.63832 9.44359 7.72592 9.21799C7.84193 8.91932 7.98086 8.70598 8.20486 8.48198C8.42887 8.25798 8.6422 8.11931 8.94087 8.00304C9.16647 7.91504 9.50528 7.81104 10.1293 7.78237C10.7197 7.75571 10.9485 7.74771 12.1413 7.74637V7.74797ZM16.1317 8.81065C15.7077 8.81065 15.3637 9.15425 15.3637 9.57839C15.3637 10.0024 15.7077 10.3464 16.1317 10.3464C16.5558 10.3464 16.8998 10.0024 16.8998 9.57839C16.8998 9.15439 16.5558 8.81065 16.1317 8.81065ZM12.7154 9.70799C10.9004 9.70799 9.42874 11.1796 9.42874 12.9947C9.42874 14.8098 10.9004 16.2807 12.7154 16.2807C14.5305 16.2807 16.0016 14.8098 16.0016 12.9947C16.0016 11.1796 14.5305 9.70799 12.7154 9.70799Z" fill="#777777"/>
<path fill-rule="evenodd" clip-rule="evenodd" d="M12.7154 10.8613C13.8936 10.8613 14.8488 11.8164 14.8488 12.9947C14.8488 14.1728 13.8936 15.1281 12.7154 15.1281C11.5372 15.1281 10.5821 14.1728 10.5821 12.9947C10.5821 11.8164 11.5372 10.8613 12.7154 10.8613Z" fill="#777777"/>
</svg>
