<svg width="25" height="25" viewBox="0 0 25 25" fill="none" xmlns="http://www.w3.org/2000/svg">
<path fill-rule="evenodd" clip-rule="evenodd" d="M0.714844 12.9946C0.714844 6.36721 6.08743 0.994629 12.7148 0.994629C19.3423 0.994629 24.7148 6.36721 24.7148 12.9946C24.7148 19.622 19.3423 24.9946 12.7148 24.9946C6.08743 24.9946 0.714844 19.622 0.714844 12.9946ZM9.19511 10.9336H6.47565V19.1044H9.19511V10.9336ZM9.37423 8.40598C9.35658 7.60483 8.78367 6.99463 7.85336 6.99463C6.92305 6.99463 6.31484 7.60483 6.31484 8.40598C6.31484 9.19053 6.90507 9.8183 7.81806 9.8183H7.83544C8.78367 9.8183 9.37423 9.19053 9.37423 8.40598ZM19.0025 14.4195C19.0025 11.9098 17.6609 10.7417 15.8714 10.7417C14.4276 10.7417 13.7811 11.5348 13.4202 12.0911V10.9338H10.7004C10.7362 11.7005 10.7004 19.1046 10.7004 19.1046H13.4202V14.5413C13.4202 14.2971 13.4378 14.0535 13.5097 13.8787C13.7063 13.3908 14.1538 12.8857 14.9051 12.8857C15.8896 12.8857 16.2831 13.635 16.2831 14.733V19.1044H19.0024L19.0025 14.4195Z" fill="#777777"/>
</svg>
