<svg width="103" height="18" viewBox="0 0 103 18" fill="none" xmlns="http://www.w3.org/2000/svg">
<path d="M102.801 8.771L87.8008 0.110742V17.4313L102.801 8.771ZM0 10.271H2.85558V7.271H0V10.271ZM8.56673 10.271H14.2779V7.271H8.56673V10.271ZM19.989 10.271H25.7002V7.271H19.989V10.271ZM31.4114 10.271H37.1225V7.271H31.4114V10.271ZM42.8337 10.271H48.5448V7.271H42.8337V10.271ZM54.256 10.271H59.9671V7.271H54.256V10.271ZM65.6783 10.271H71.3894V7.271H65.6783V10.271ZM77.1006 10.271H82.8117V7.271H77.1006V10.271ZM88.5229 10.271H94.234V7.271H88.5229V10.271Z" fill="#844FBA"/>
</svg>
