<svg width="24" height="25" viewBox="0 0 24 25" fill="none" xmlns="http://www.w3.org/2000/svg">
<path d="M1 12.7373C1 4.7373 4 1.7373 12 1.7373C20 1.7373 23 4.7373 23 12.7373C23 20.7373 20 23.7373 12 23.7373C4 23.7373 1 20.7373 1 12.7373Z" fill="#008696"/>
<path d="M17.8802 7.45752H6.1202C5.86806 7.45752 5.61839 7.50718 5.38544 7.60367C5.1525 7.70016 4.94084 7.84159 4.76255 8.01987C4.58426 8.19816 4.44284 8.40982 4.34635 8.64277C4.24986 8.87571 4.2002 9.12538 4.2002 9.37752V16.0975C4.2002 16.6067 4.40248 17.0951 4.76255 17.4552C5.12262 17.8152 5.61098 18.0175 6.1202 18.0175H8.6702C9.09449 18.0338 9.51548 17.9368 9.88984 17.7365C10.2642 17.5361 10.5784 17.2396 10.8002 16.8775C11.4702 15.4075 11.6402 15.1975 12.0002 15.1975C12.3602 15.1975 12.5302 15.4075 13.2002 16.8775C13.422 17.2396 13.7362 17.5361 14.1105 17.7365C14.4849 17.9368 14.9059 18.0338 15.3302 18.0175H17.8802C18.3894 18.0175 18.8778 17.8152 19.2378 17.4552C19.5979 17.0951 19.8002 16.6067 19.8002 16.0975V9.37752C19.8002 9.12538 19.7505 8.87571 19.654 8.64277C19.5576 8.40982 19.4161 8.19816 19.2378 8.01987C19.0596 7.84159 18.8479 7.70016 18.6149 7.60367C18.382 7.50718 18.1323 7.45752 17.8802 7.45752ZM8.5202 14.2975C8.21166 14.2975 7.91005 14.206 7.65351 14.0346C7.39697 13.8632 7.19702 13.6196 7.07894 13.3345C6.96087 13.0495 6.92998 12.7358 6.99017 12.4332C7.05036 12.1306 7.19894 11.8526 7.41711 11.6344C7.63528 11.4163 7.91324 11.2677 8.21585 11.2075C8.51847 11.1473 8.83213 11.1782 9.11718 11.2963C9.40223 11.4143 9.64587 11.6143 9.81729 11.8708C9.9887 12.1274 10.0802 12.429 10.0802 12.7375C10.0802 13.1513 9.91584 13.548 9.62328 13.8406C9.33073 14.1332 8.93393 14.2975 8.5202 14.2975ZM15.5202 14.2975C15.2087 14.3135 14.8997 14.2358 14.6328 14.0744C14.366 13.913 14.1536 13.6753 14.0232 13.392C13.8928 13.1088 13.8502 12.7929 13.9011 12.4852C13.9519 12.1775 14.0938 11.8921 14.3085 11.6659C14.5231 11.4396 14.8006 11.2829 15.1052 11.216C15.4098 11.149 15.7275 11.1749 16.0172 11.2902C16.307 11.4056 16.5555 11.6051 16.7307 11.8631C16.9059 12.1211 16.9998 12.4257 17.0002 12.7375C17.0003 13.1444 16.8415 13.5353 16.5575 13.8267C16.2736 14.1181 15.887 14.2871 15.4802 14.2975H15.5202Z" fill="white"/>
</svg>
