<svg width="32" height="33" viewBox="0 0 32 33" fill="none" xmlns="http://www.w3.org/2000/svg">
<g clip-path="url(#clip0_2_4729)">
<rect y="0.737305" width="32" height="32" rx="4" fill="white"/>
<path d="M5 16.7373C5 8.7373 8 5.7373 16 5.7373C24 5.7373 27 8.7373 27 16.7373C27 24.7373 24 27.7373 16 27.7373C8 27.7373 5 24.7373 5 16.7373Z" fill="#008696"/>
<path d="M21.8802 11.4575H10.1202C9.86806 11.4575 9.61839 11.5072 9.38544 11.6037C9.1525 11.7002 8.94084 11.8416 8.76255 12.0199C8.58426 12.1982 8.44284 12.4098 8.34635 12.6428C8.24986 12.8757 8.2002 13.1254 8.2002 13.3775V20.0975C8.2002 20.6067 8.40248 21.0951 8.76255 21.4552C9.12262 21.8152 9.61098 22.0175 10.1202 22.0175H12.6702C13.0945 22.0338 13.5155 21.9368 13.8898 21.7365C14.2642 21.5361 14.5784 21.2396 14.8002 20.8775C15.4702 19.4075 15.6402 19.1975 16.0002 19.1975C16.3602 19.1975 16.5302 19.4075 17.2002 20.8775C17.422 21.2396 17.7362 21.5361 18.1105 21.7365C18.4849 21.9368 18.9059 22.0338 19.3302 22.0175H21.8802C22.3894 22.0175 22.8778 21.8152 23.2378 21.4552C23.5979 21.0951 23.8002 20.6067 23.8002 20.0975V13.3775C23.8002 13.1254 23.7505 12.8757 23.654 12.6428C23.5576 12.4098 23.4161 12.1982 23.2378 12.0199C23.0596 11.8416 22.8479 11.7002 22.6149 11.6037C22.382 11.5072 22.1323 11.4575 21.8802 11.4575ZM12.5202 18.2975C12.2117 18.2975 11.91 18.206 11.6535 18.0346C11.397 17.8632 11.197 17.6196 11.0789 17.3345C10.9609 17.0495 10.93 16.7358 10.9902 16.4332C11.0504 16.1306 11.1989 15.8526 11.4171 15.6344C11.6353 15.4163 11.9132 15.2677 12.2159 15.2075C12.5185 15.1473 12.8321 15.1782 13.1172 15.2963C13.4022 15.4143 13.6459 15.6143 13.8173 15.8708C13.9887 16.1274 14.0802 16.429 14.0802 16.7375C14.0802 17.1513 13.9158 17.548 13.6233 17.8406C13.3307 18.1332 12.9339 18.2975 12.5202 18.2975ZM19.5202 18.2975C19.2087 18.3135 18.8997 18.2358 18.6328 18.0744C18.366 17.913 18.1536 17.6753 18.0232 17.392C17.8928 17.1088 17.8502 16.7929 17.9011 16.4852C17.9519 16.1775 18.0938 15.8921 18.3085 15.6659C18.5231 15.4396 18.8006 15.2829 19.1052 15.216C19.4098 15.149 19.7275 15.1749 20.0172 15.2902C20.307 15.4056 20.5555 15.6051 20.7307 15.8631C20.9059 16.1211 20.9998 16.4257 21.0002 16.7375C21.0003 17.1444 20.8415 17.5353 20.5575 17.8267C20.2736 18.1181 19.887 18.2871 19.4802 18.2975H19.5202Z" fill="white"/>
</g>
<defs>
<clipPath id="clip0_2_4729">
<rect width="32" height="32" fill="white" transform="translate(0 0.737305)"/>
</clipPath>
</defs>
</svg>
