<svg width="36" height="36" viewBox="0 0 36 36" xmlns="http://www.w3.org/2000/svg">
<path fill-rule="evenodd" clip-rule="evenodd" d="M18.2021 35.8646C27.7565 35.8646 35.5018 27.9206 35.5018 18.1213C35.5018 8.32189 27.7565 0.37793 18.2021 0.37793C8.6477 0.37793 0.902344 8.32189 0.902344 18.1213C0.902344 27.9206 8.6477 35.8646 18.2021 35.8646ZM20.3646 11.4675C20.3646 10.2426 19.3964 9.24959 18.2021 9.24959C17.0078 9.24959 16.0396 10.2426 16.0396 11.4675V15.9033H11.7147C10.5204 15.9033 9.55222 16.8963 9.55222 18.1213C9.55222 19.3462 10.5204 20.3392 11.7147 20.3392H16.0396V24.775C16.0396 25.9999 17.0078 26.9929 18.2021 26.9929C19.3964 26.9929 20.3646 25.9999 20.3646 24.775V20.3392H24.6895C25.8838 20.3392 26.852 19.3462 26.852 18.1213C26.852 16.8963 25.8838 15.9033 24.6895 15.9033H20.3646V11.4675Z" fill="#844FBA"/>
</svg>
