<svg width="22" height="20" viewBox="0 0 22 20" fill="none" xmlns="http://www.w3.org/2000/svg">
<path d="M9.50043 9.62577H4.00043M3.91577 9.91727L1.58085 16.892C1.39742 17.4399 1.3057 17.7139 1.37152 17.8826C1.42868 18.0291 1.55144 18.1402 1.70292 18.1825C1.87736 18.2311 2.14083 18.1126 2.66776 17.8755L19.3792 10.3553C19.8936 10.1239 20.1507 10.0081 20.2302 9.84737C20.2993 9.70771 20.2993 9.54383 20.2302 9.40416C20.1507 9.2434 19.8936 9.12768 19.3792 8.89623L2.66193 1.37349C2.13659 1.13709 1.87392 1.01889 1.69966 1.06737C1.54832 1.10948 1.42556 1.22027 1.36821 1.36651C1.30216 1.53491 1.3929 1.80828 1.57437 2.35504L3.91642 9.4113C3.94759 9.5052 3.96317 9.55216 3.96933 9.60018C3.97479 9.64279 3.97473 9.68593 3.96916 9.72852C3.96289 9.77653 3.94718 9.82344 3.91577 9.91727Z" stroke="#844FBA" stroke-width="2" stroke-linecap="round" stroke-linejoin="round"/>
</svg>
