<svg width="33" height="33" viewBox="0 0 33 33" fill="none" xmlns="http://www.w3.org/2000/svg">
<path d="M16.4007 20.8912C18.6099 20.8912 20.4007 19.1003 20.4007 16.8912C20.4007 14.6821 18.6099 12.8912 16.4007 12.8912C14.1916 12.8912 12.4007 14.6821 12.4007 16.8912C12.4007 19.1003 14.1916 20.8912 16.4007 20.8912Z" stroke="#777777" stroke-width="2.58984" stroke-linecap="round" stroke-linejoin="round"/>
<path d="M25.3704 20.5276C25.2091 20.8932 25.1609 21.2987 25.2322 21.6919C25.3035 22.0851 25.491 22.4479 25.7704 22.7336L25.8431 22.8063C26.0685 23.0315 26.2473 23.2989 26.3693 23.5932C26.4913 23.8875 26.5541 24.2029 26.5541 24.5215C26.5541 24.8401 26.4913 25.1555 26.3693 25.4498C26.2473 25.7441 26.0685 26.0115 25.8431 26.2366C25.618 26.462 25.3506 26.6409 25.0563 26.7629C24.762 26.8849 24.4466 26.9476 24.128 26.9476C23.8094 26.9476 23.4939 26.8849 23.1997 26.7629C22.9054 26.6409 22.638 26.462 22.4128 26.2366L22.3401 26.1639C22.0544 25.8845 21.6916 25.697 21.2984 25.6257C20.9052 25.5544 20.4996 25.6026 20.1341 25.7639C19.7755 25.9176 19.4698 26.1727 19.2544 26.4979C19.0391 26.8231 18.9235 27.2042 18.9219 27.5942V27.8003C18.9219 28.4432 18.6665 29.0599 18.2119 29.5145C17.7573 29.9691 17.1406 30.2245 16.4977 30.2245C15.8547 30.2245 15.2381 29.9691 14.7835 29.5145C14.3289 29.0599 14.0734 28.4432 14.0734 27.8003V27.6912C14.0641 27.29 13.9342 26.9009 13.7007 26.5745C13.4673 26.2481 13.141 25.9994 12.7644 25.8609C12.3988 25.6995 11.9932 25.6514 11.6 25.7227C11.2068 25.794 10.844 25.9815 10.5583 26.2609L10.4856 26.3336C10.2604 26.559 9.99305 26.7378 9.69875 26.8598C9.40446 26.9818 9.089 27.0446 8.77041 27.0446C8.45183 27.0446 8.13637 26.9818 7.84207 26.8598C7.54777 26.7378 7.28041 26.559 7.05526 26.3336C6.82986 26.1085 6.65105 25.8411 6.52906 25.5468C6.40706 25.2525 6.34426 24.9371 6.34426 24.6185C6.34426 24.2999 6.40706 23.9844 6.52906 23.6901C6.65105 23.3958 6.82986 23.1285 7.05526 22.9033L7.12799 22.8306C7.40743 22.5449 7.59488 22.1821 7.66618 21.7889C7.73747 21.3957 7.68934 20.9901 7.52799 20.6245C7.37434 20.266 7.11921 19.9603 6.79401 19.7449C6.46881 19.5295 6.08773 19.414 5.69769 19.4124H5.49163C4.84868 19.4124 4.23206 19.157 3.77743 18.7024C3.32279 18.2477 3.06738 17.6311 3.06738 16.9882C3.06738 16.3452 3.32279 15.7286 3.77743 15.274C4.23206 14.8193 4.84868 14.5639 5.49163 14.5639H5.60072C6.00192 14.5545 6.39103 14.4247 6.71744 14.1912C7.04386 13.9577 7.29249 13.6315 7.43102 13.2548C7.59237 12.8892 7.6405 12.4837 7.56921 12.0905C7.49791 11.6973 7.31046 11.3344 7.03102 11.0488L6.95829 10.976C6.73289 10.7509 6.55409 10.4835 6.43209 10.1892C6.31009 9.89493 6.24729 9.57947 6.24729 9.26089C6.24729 8.94231 6.31009 8.62685 6.43209 8.33255C6.55409 8.03825 6.73289 7.77089 6.95829 7.54574C7.18344 7.32034 7.45081 7.14153 7.7451 7.01953C8.0394 6.89754 8.35486 6.83474 8.67344 6.83474C8.99203 6.83474 9.30749 6.89754 9.60178 7.01953C9.89608 7.14153 10.1634 7.32034 10.3886 7.54574L10.4613 7.61847C10.747 7.89791 11.1098 8.08536 11.503 8.15665C11.8962 8.22795 12.3018 8.17982 12.6674 8.01847H12.7644C13.1229 7.86482 13.4286 7.60969 13.644 7.28449C13.8593 6.95929 13.9749 6.57821 13.9765 6.18816V5.9821C13.9765 5.33915 14.2319 4.72254 14.6865 4.26791C15.1412 3.81327 15.7578 3.55786 16.4007 3.55786C17.0437 3.55786 17.6603 3.81327 18.1149 4.26791C18.5695 4.72254 18.825 5.33915 18.825 5.9821V6.09119C18.8265 6.48124 18.9421 6.86232 19.1575 7.18752C19.3728 7.51272 19.6786 7.76785 20.0371 7.9215C20.4027 8.08285 20.8082 8.13098 21.2014 8.05969C21.5946 7.98839 21.9575 7.80094 22.2431 7.5215L22.3159 7.44877C22.541 7.22337 22.8084 7.04456 23.1027 6.92257C23.397 6.80057 23.7124 6.73777 24.031 6.73777C24.3496 6.73777 24.6651 6.80057 24.9594 6.92257C25.2537 7.04456 25.521 7.22337 25.7462 7.44877C25.9716 7.67392 26.1504 7.94128 26.2724 8.23558C26.3944 8.52988 26.4572 8.84534 26.4572 9.16392C26.4572 9.48251 26.3944 9.79796 26.2724 10.0923C26.1504 10.3866 25.9716 10.6539 25.7462 10.8791L25.6734 10.9518C25.394 11.2375 25.2066 11.6003 25.1353 11.9935C25.064 12.3867 25.1121 12.7923 25.2734 13.1579V13.2548C25.4271 13.6133 25.6822 13.9191 26.0074 14.1345C26.3326 14.3498 26.7137 14.4654 27.1037 14.467H27.3098C27.9528 14.467 28.5694 14.7224 29.024 15.177C29.4786 15.6316 29.7341 16.2482 29.7341 16.8912C29.7341 17.5341 29.4786 18.1508 29.024 18.6054C28.5694 19.06 27.9528 19.3154 27.3098 19.3154H27.2007C26.8107 19.317 26.4296 19.4326 26.1044 19.6479C25.7792 19.8633 25.5241 20.1691 25.3704 20.5276Z" stroke="#777777" stroke-width="2.58984" stroke-linecap="round" stroke-linejoin="round"/>
</svg>
