<svg width="19" height="19" viewBox="0 0 19 19" fill="none" xmlns="http://www.w3.org/2000/svg">
<path d="M8.60373 1.77791C8.96296 0.672337 10.527 0.672338 10.8863 1.77791L12.1698 5.72807C12.3304 6.22249 12.7911 6.55725 13.311 6.55725H17.4645C18.6269 6.55725 19.1103 8.04479 18.1698 8.72807L14.8096 11.1694C14.389 11.475 14.213 12.0166 14.3737 12.511L15.6572 16.4612C16.0164 17.5668 14.751 18.4861 13.8105 17.8028L10.4503 15.3615C10.0298 15.0559 9.46024 15.0559 9.03966 15.3615L5.67945 17.8028C4.739 18.4861 3.47362 17.5668 3.83284 16.4612L5.11633 12.511C5.27698 12.0166 5.10099 11.475 4.6804 11.1694L1.3202 8.72807C0.379744 8.04479 0.863074 6.55725 2.02554 6.55725H6.17898C6.69885 6.55725 7.1596 6.22249 7.32025 5.72807L8.60373 1.77791Z" fill="#F2C94C"/>
</svg>
