<svg width="19" height="5" viewBox="0 0 19 5" fill="none" xmlns="http://www.w3.org/2000/svg">
<path d="M8.90039 2.14746C8.90039 2.69975 9.34811 3.14746 9.90039 3.14746C10.4527 3.14746 10.9004 2.69975 10.9004 2.14746C10.9004 1.59518 10.4527 1.14746 9.90039 1.14746C9.34811 1.14746 8.90039 1.59518 8.90039 2.14746Z" stroke="black" stroke-width="2" stroke-linecap="round" stroke-linejoin="round"/>
<path d="M15.9004 2.14746C15.9004 2.69975 16.3481 3.14746 16.9004 3.14746C17.4527 3.14746 17.9004 2.69975 17.9004 2.14746C17.9004 1.59518 17.4527 1.14746 16.9004 1.14746C16.3481 1.14746 15.9004 1.59518 15.9004 2.14746Z" stroke="black" stroke-width="2" stroke-linecap="round" stroke-linejoin="round"/>
<path d="M1.90039 2.14746C1.90039 2.69974 2.34811 3.14746 2.90039 3.14746C3.45268 3.14746 3.90039 2.69975 3.90039 2.14746C3.90039 1.59518 3.45268 1.14746 2.90039 1.14746C2.34811 1.14746 1.90039 1.59518 1.90039 2.14746Z" stroke="black" stroke-width="2" stroke-linecap="round" stroke-linejoin="round"/>
</svg>
