<svg width="19" height="5" viewBox="0 0 19 5" fill="none" xmlns="http://www.w3.org/2000/svg">
<path d="M8.86719 2.68555C8.86719 3.23783 9.3149 3.68555 9.86719 3.68555C10.4195 3.68555 10.8672 3.23783 10.8672 2.68555C10.8672 2.13326 10.4195 1.68555 9.86719 1.68555C9.3149 1.68555 8.86719 2.13326 8.86719 2.68555Z" stroke="#777777" stroke-width="2" stroke-linecap="round" stroke-linejoin="round"/>
<path d="M15.8672 2.68555C15.8672 3.23783 16.3149 3.68555 16.8672 3.68555C17.4195 3.68555 17.8672 3.23783 17.8672 2.68555C17.8672 2.13326 17.4195 1.68555 16.8672 1.68555C16.3149 1.68555 15.8672 2.13326 15.8672 2.68555Z" stroke="#777777" stroke-width="2" stroke-linecap="round" stroke-linejoin="round"/>
<path d="M1.86719 2.68555C1.86719 3.23783 2.3149 3.68555 2.86719 3.68555C3.41947 3.68555 3.86719 3.23783 3.86719 2.68555C3.86719 2.13326 3.41947 1.68555 2.86719 1.68555C2.3149 1.68555 1.86719 2.13326 1.86719 2.68555Z" stroke="#777777" stroke-width="2" stroke-linecap="round" stroke-linejoin="round"/>
</svg>
