<svg width="26" height="26" viewBox="0 0 26 26" fill="none" xmlns="http://www.w3.org/2000/svg">
<path fill-rule="evenodd" clip-rule="evenodd" d="M13.3513 25.0803C20.2445 25.0803 25.8325 19.4922 25.8325 12.5991C25.8325 5.70588 20.2445 0.117859 13.3513 0.117859C6.45814 0.117859 0.870117 5.70588 0.870117 12.5991C0.870117 19.4922 6.45814 25.0803 13.3513 25.0803ZM11.3342 8.37557C10.7249 7.76629 9.7371 7.76629 9.12782 8.37557C8.51855 8.98484 8.51855 9.97267 9.12782 10.582L11.1449 12.5991L9.12782 14.6162C8.51855 15.2254 8.51855 16.2133 9.12782 16.8226C9.7371 17.4318 10.7249 17.4318 11.3342 16.8226L13.3513 14.8054L15.3684 16.8226C15.9777 17.4318 16.9655 17.4318 17.5748 16.8226C18.1841 16.2133 18.1841 15.2254 17.5748 14.6162L15.5577 12.5991L17.5748 10.582C18.1841 9.97267 18.1841 8.98484 17.5748 8.37557C16.9655 7.76629 15.9777 7.76629 15.3684 8.37557L13.3513 10.3927L11.3342 8.37557Z" fill="#333333"/>
</svg>
