<svg width="25" height="25" viewBox="0 0 25 25" fill="none" xmlns="http://www.w3.org/2000/svg">
<path fill-rule="evenodd" clip-rule="evenodd" d="M0.714844 12.9946C0.714844 6.36721 6.08743 0.994629 12.7148 0.994629C19.3423 0.994629 24.7148 6.36721 24.7148 12.9946C24.7148 19.622 19.3423 24.9946 12.7148 24.9946C6.08743 24.9946 0.714844 19.622 0.714844 12.9946ZM12.3554 10.7484L12.3806 11.1636L11.9609 11.1128C10.4333 10.9179 9.09867 10.2569 7.96551 9.14679L7.41153 8.59598L7.26883 9.00273C6.96666 9.90945 7.15971 10.867 7.78924 11.511C8.12499 11.867 8.04945 11.9178 7.47028 11.7059C7.26883 11.6382 7.09256 11.5873 7.07578 11.6127C7.01702 11.672 7.21847 12.4432 7.37795 12.7482C7.59619 13.1719 8.04106 13.5872 8.52789 13.8329L8.93919 14.0278L8.45235 14.0363C7.9823 14.0363 7.96551 14.0448 8.01588 14.2227C8.18375 14.7735 8.84686 15.3582 9.58551 15.6125L10.1059 15.7904L9.65266 16.0616C8.98116 16.4514 8.19214 16.6717 7.40313 16.6887C7.02541 16.6971 6.71484 16.731 6.71484 16.7565C6.71484 16.8412 7.73888 17.3157 8.33484 17.5022C10.1227 18.053 12.2463 17.8157 13.8411 16.8751C14.9743 16.2056 16.1075 14.8752 16.6363 13.5872C16.9216 12.9008 17.207 11.6466 17.207 11.045C17.207 10.6552 17.2322 10.6043 17.7023 10.1382C17.9793 9.86708 18.2395 9.57049 18.2898 9.48575C18.3738 9.32474 18.3654 9.32474 17.9373 9.4688C17.2238 9.72302 17.1231 9.68913 17.4756 9.3078C17.7358 9.03663 18.0464 8.54513 18.0464 8.40107C18.0464 8.37565 17.9205 8.41802 17.7778 8.49429C17.6267 8.57903 17.291 8.70614 17.0392 8.78241L16.5859 8.92646L16.1746 8.64682C15.948 8.49429 15.629 8.32481 15.4611 8.27396C15.0331 8.15533 14.3783 8.17228 13.9922 8.30786C12.943 8.68919 12.2799 9.67218 12.3554 10.7484Z" fill="#777777"/>
</svg>
