<svg width="16" height="17" viewBox="0 0 16 17" fill="none" xmlns="http://www.w3.org/2000/svg">
<path d="M14.2732 16.0913C14.2732 14.9469 14.2732 14.3746 14.132 13.909C13.8139 12.8607 12.9936 12.0403 11.9452 11.7222C11.4796 11.581 10.9074 11.581 9.76291 11.581H5.66265C4.51821 11.581 3.94599 11.581 3.48036 11.7222C2.432 12.0403 1.61161 12.8607 1.29359 13.909C1.15234 14.3746 1.15234 14.9469 1.15234 16.0913M11.403 5.02057C11.403 7.05863 9.75084 8.71081 7.71278 8.71081C5.67471 8.71081 4.02253 7.05863 4.02253 5.02057C4.02253 2.9825 5.67471 1.33032 7.71278 1.33032C9.75084 1.33032 11.403 2.9825 11.403 5.02057Z" stroke="#222222" stroke-width="1.64011" stroke-linecap="round" stroke-linejoin="round"/>
</svg>
