<svg width="28" height="20" viewBox="0 0 28 20" fill="none" xmlns="http://www.w3.org/2000/svg">
<path d="M25.8563 5.92611C25.8563 5.20203 25.8563 4.83999 25.7132 4.67235C25.5889 4.52688 25.4026 4.44969 25.2118 4.4647C24.9921 4.48199 24.7361 4.73799 24.2241 5.24999L19.8803 9.59376L24.2241 13.9375C24.7361 14.4495 24.9921 14.7055 25.2118 14.7228C25.4026 14.7378 25.5889 14.6606 25.7132 14.5152C25.8563 14.3475 25.8563 13.9855 25.8563 13.2614V5.92611Z" stroke="#844FBA" stroke-width="2.39042" stroke-linecap="round" stroke-linejoin="round"/>
<path d="M1.95215 6.9643C1.95215 4.95616 1.95215 3.95209 2.34296 3.18508C2.68672 2.5104 3.23526 1.96187 3.90994 1.61811C4.67694 1.22729 5.68101 1.22729 7.68915 1.22729H14.1433C16.1514 1.22729 17.1555 1.22729 17.9225 1.61811C18.5972 1.96187 19.1457 2.5104 19.4895 3.18508C19.8803 3.95209 19.8803 4.95616 19.8803 6.9643V12.2232C19.8803 14.2314 19.8803 15.2354 19.4895 16.0024C19.1457 16.6771 18.5972 17.2257 17.9225 17.5694C17.1555 17.9602 16.1514 17.9602 14.1433 17.9602H7.68915C5.68101 17.9602 4.67694 17.9602 3.90994 17.5694C3.23526 17.2257 2.68672 16.6771 2.34296 16.0024C1.95215 15.2354 1.95215 14.2314 1.95215 12.2232V6.9643Z" stroke="#844FBA" stroke-width="2.39042" stroke-linecap="round" stroke-linejoin="round"/>
</svg>
