<svg width="25" height="25" viewBox="0 0 25 25" fill="none" xmlns="http://www.w3.org/2000/svg">
<path fill-rule="evenodd" clip-rule="evenodd" d="M0.714844 12.9946C0.714844 6.36721 6.08743 0.994629 12.7148 0.994629C19.3423 0.994629 24.7148 6.36721 24.7148 12.9946C24.7148 19.622 19.3423 24.9946 12.7148 24.9946C6.08743 24.9946 0.714844 19.622 0.714844 12.9946ZM18.8474 10.0312C18.7002 9.46574 18.2664 9.02043 17.7156 8.86929C16.7175 8.59463 12.7148 8.59463 12.7148 8.59463C12.7148 8.59463 8.71215 8.59463 7.71397 8.86929C7.16321 9.02043 6.72946 9.46574 6.58226 10.0312C6.31484 11.0561 6.31484 13.1946 6.31484 13.1946C6.31484 13.1946 6.31484 15.333 6.58226 16.358C6.72946 16.9235 7.16321 17.3688 7.71397 17.52C8.71215 17.7946 12.7148 17.7946 12.7148 17.7946C12.7148 17.7946 16.7175 17.7946 17.7156 17.52C18.2664 17.3688 18.7002 16.9235 18.8474 16.358C19.1148 15.333 19.1148 13.1946 19.1148 13.1946C19.1148 13.1946 19.1148 11.0561 18.8474 10.0312Z" fill="#777777"/>
<path fill-rule="evenodd" clip-rule="evenodd" d="M11.5146 15.3945V11.3945L14.7146 13.3946L11.5146 15.3945Z" fill="#777777"/>
</svg>
